<?xml version="1.0" standalone="yes"?>
<svg xmlns="http://www.w3.org/2000/svg" width="367" height="367">
<path style="fill:#f8f8f8; stroke:none;" d="M0 0L0 367L367 367L367 0L0 0z"/>
<path style="fill:#020202; stroke:none;" d="M24 292C44.1385 293.589 67.2565 298.862 87 291.896C101.213 286.881 113.457 276.351 124.561 266.522C131.644 260.251 137.953 253.118 144.763 246.59C152.201 239.459 160.265 232.971 167.24 225.322C171.042 221.152 175.429 217.894 179.715 214.258C181.47 212.769 183.477 210.171 186.015 210.203C190.748 210.263 196.834 218.494 200.282 221.474C213.292 232.716 225.784 244.633 239.015 255.612C248.264 263.287 257.418 272.247 268 278.096C294.502 292.746 321.068 287.758 349 281C345.605 271.205 332.688 262.589 325.289 255.616C303.891 235.447 281.144 216.537 259.04 197.145C252.213 191.155 245.981 184.535 239.17 178.514C236.578 176.223 231.433 173.052 230.73 169.427C230.204 166.715 233.372 164.101 234.986 162.344C239.869 157.029 244.837 152.112 249.907 146.975C270.794 125.814 291.966 105.034 313.054 84.0532C319.013 78.1245 325.689 72.9329 331.907 67.2855C334.376 65.0432 338.466 61.9121 336.15 58.1991C331.257 50.3575 315.027 50.764 307 49.7184C293.618 47.975 276.581 46.2342 264.004 52.4383C256.691 56.0453 251.537 63.309 245.985 69C235.131 80.1259 223.981 90.99 212.923 101.905C206.147 108.593 198.99 114.949 192.428 121.831C190.717 123.626 187.201 128.671 184.335 128.231C181.575 127.807 178.948 123.927 176.999 122.171C170.984 116.752 164.637 111.622 158.501 106.333C141.75 91.8955 125.932 76.3912 108.961 62.1921C102.311 56.6284 95.7609 49.5168 88 45.5286C81.5731 42.2259 74.2176 41.4803 67.0895 41.1697C54.3567 40.6149 40.2595 41.3386 27.7145 43.5802C22.8595 44.4478 15.6273 46.6151 17.1265 53C18.1176 57.2204 21.9347 60.2514 25 62.9962C31.075 68.4358 37.3433 73.6591 43.5008 79.0008C65.9736 98.4963 88.2671 118.582 109.986 138.91C117.237 145.697 124.392 152.702 132 159.08C134.574 161.239 139.316 164.048 138.593 168.004C137.971 171.404 134.483 174.433 132.311 176.907C126.495 183.53 120.161 189.66 114.039 195.996C92.496 218.294 70.2135 239.916 48.1551 261.718C42.8257 266.986 37.812 272.519 32.6705 277.961C28.5955 282.274 24.6836 285.856 24 292M185 247.8C171.365 248.981 161.69 260.954 152.285 269.486C136.485 283.82 119.339 297.543 100 306.738C84.5275 314.096 67.6389 315.575 51 312.193C41.3429 310.23 26.7455 302.844 17.044 306.174C8.57401 309.08 13.5497 317.847 18.439 321.441C29.6955 329.716 43.2354 334.779 57 336.715C89.8651 341.336 118.539 326.578 143.675 306.329C157.748 294.991 173.477 272.012 194 275.214C206.533 277.169 218.189 291.019 228 298.244C252.488 316.277 283.117 337.38 315.424 332.561C328.604 330.595 342.159 323.407 351.906 314.41C356.405 310.257 359.781 301.668 351.956 298.603C346.633 296.519 340.746 299.593 336 301.691C329.647 304.5 322.852 307.151 316 308.384C300.082 311.249 284.179 304.776 270 298.11C251.312 289.325 236.087 275.461 220.039 262.895C210.423 255.365 197.921 246.681 185 247.8M123 335C127.448 343.699 140.166 346.06 149 344.181C158.428 342.176 165.609 336.283 173.015 330.497C178.175 326.465 183.141 321.759 190 321.19C199.613 320.392 207.832 328.389 215.039 333.565C222.182 338.695 230.193 342.219 239 343.035C244.752 343.567 254.612 343.578 257.953 337.674C260.48 333.208 255.052 331.182 251.999 329.63C242.865 324.987 233.771 320.285 225.09 314.811C213.713 307.638 202.601 296.405 188.285 296.402C177.545 296.4 168.575 307.269 161.015 313.539C149.219 323.322 136.662 328.534 123 335z"/>
</svg>
