<?xml version="1.0" encoding="UTF-8" standalone="no"?>
<svg
   width="367"
   height="367"
   version="1.1"
   id="svg2"
   sodipodi:docname="MarinerX_Logo_Name.svg"
   inkscape:version="1.4 (86a8ad7, 2024-10-11)"
   xmlns:inkscape="http://www.inkscape.org/namespaces/inkscape"
   xmlns:sodipodi="http://sodipodi.sourceforge.net/DTD/sodipodi-0.dtd"
   xmlns="http://www.w3.org/2000/svg"
   xmlns:svg="http://www.w3.org/2000/svg">
  <defs
     id="defs2" />
  <sodipodi:namedview
     id="namedview2"
     pagecolor="#ffffff"
     bordercolor="#000000"
     borderopacity="0.25"
     inkscape:showpageshadow="2"
     inkscape:pageopacity="0.0"
     inkscape:pagecheckerboard="0"
     inkscape:deskcolor="#d1d1d1"
     inkscape:zoom="2.4064751"
     inkscape:cx="169.54258"
     inkscape:cy="229.58891"
     inkscape:window-width="2560"
     inkscape:window-height="1530"
     inkscape:window-x="-11"
     inkscape:window-y="-11"
     inkscape:window-maximized="1"
     inkscape:current-layer="svg2" />
  <path
     style="fill:#f8f8f8; stroke:none;"
     d="M0 0L0 367L367 367L367 0L0 0z"
     id="path1" />
  <path
     id="path2"
     style="fill:#020202; stroke:none;"
     d="M 57.330078 40.996094 C 47.405544 41.070653 37.123594 41.898878 27.714844 43.580078 C 22.859844 44.447678 15.627753 46.6151 17.126953 53 C 18.118053 57.2204 21.9347 60.251294 25 62.996094 C 31.075 68.435694 37.3425 73.6583 43.5 79 C 65.9728 98.4955 88.267428 118.58216 109.98633 138.91016 C 117.23733 145.69716 124.392 152.70208 132 159.08008 C 134.574 161.23908 139.31675 164.04791 138.59375 168.00391 C 137.97175 171.40391 134.48255 174.43225 132.31055 176.90625 C 126.49455 183.52925 120.16106 189.66009 114.03906 195.99609 C 92.496062 218.29409 70.212697 239.91675 48.154297 261.71875 C 42.824897 266.98675 37.811422 272.51894 32.669922 277.96094 C 28.594922 282.27394 24.6836 285.856 24 292 C 44.1385 293.589 67.2565 298.86248 87 291.89648 C 101.213 286.88148 113.45655 276.35048 124.56055 266.52148 C 131.64355 260.25048 137.95367 253.11784 144.76367 246.58984 C 152.20167 239.45884 160.26523 232.97127 167.24023 225.32227 C 171.04223 221.15227 175.42884 217.89381 179.71484 214.25781 C 181.46984 212.76881 183.47763 210.17112 186.01562 210.20312 C 190.74863 210.26313 196.83325 218.49461 200.28125 221.47461 C 213.29125 232.71661 225.78462 244.63233 239.01562 255.61133 C 248.26463 263.28633 257.418 272.2467 268 278.0957 C 294.502 292.7457 321.068 287.758 349 281 C 345.605 271.205 332.68806 262.58823 325.28906 255.61523 C 303.89106 235.44623 281.14306 216.53653 259.03906 197.14453 C 252.21206 191.15453 245.98092 184.53467 239.16992 178.51367 C 236.57792 176.22267 231.43347 173.05273 230.73047 169.42773 C 230.20447 166.71573 233.37233 164.10075 234.98633 162.34375 C 239.86933 157.02875 244.83625 152.11161 249.90625 146.97461 C 270.79325 125.81361 291.96669 105.03353 313.05469 84.052734 C 319.01369 78.124034 325.68825 72.932556 331.90625 67.285156 C 334.37525 65.042856 338.46639 61.912219 336.15039 58.199219 C 331.25739 50.357619 315.027 50.76435 307 49.71875 C 293.618 47.97535 276.58091 46.2334 264.00391 52.4375 C 256.69091 56.0445 251.53637 63.309 245.98438 69 C 235.13037 80.1259 223.98183 90.989297 212.92383 101.9043 C 206.14783 108.5923 198.98973 114.94808 192.42773 121.83008 C 190.71673 123.62508 187.20194 128.67047 184.33594 128.23047 C 181.57594 127.80647 178.94705 123.92787 176.99805 122.17188 C 170.98305 116.75287 164.63795 111.62103 158.50195 106.33203 C 141.75095 91.894531 125.93194 76.390506 108.96094 62.191406 C 102.31094 56.627706 95.7609 49.517497 88 45.529297 C 81.5731 42.226597 74.217944 41.480522 67.089844 41.169922 C 63.906644 41.031222 60.638256 40.971241 57.330078 40.996094 z M 185 247.80078 C 171.365 248.98178 161.69016 260.95433 152.28516 269.48633 C 136.48516 283.82033 119.339 297.54328 100 306.73828 C 84.5275 314.09628 67.6389 315.57536 51 312.19336 C 41.3429 310.23036 26.746422 302.84383 17.044922 306.17383 C 8.5749319 309.07983 13.550153 317.84741 18.439453 321.44141 C 29.695953 329.71641 43.2354 334.77884 57 336.71484 C 89.8651 341.33584 118.53978 326.57713 143.67578 306.32812 C 157.74878 294.99012 173.477 272.01284 194 275.21484 C 206.533 277.16984 218.189 291.01914 228 298.24414 C 252.488 316.27714 283.11683 337.37955 315.42383 332.56055 C 328.60383 330.59455 342.15925 323.40716 351.90625 314.41016 C 356.40525 310.25716 359.78008 301.66852 351.95508 298.60352 C 346.63208 296.51952 340.746 299.59341 336 301.69141 C 329.647 304.50041 322.852 307.15177 316 308.38477 C 300.082 311.24977 284.179 304.77538 270 298.10938 C 251.312 289.32437 236.08706 275.46053 220.03906 262.89453 C 210.42306 255.36453 197.921 246.68178 185 247.80078 z M 188.28516 296.40234 C 177.54516 296.40034 168.57563 307.26906 161.01562 313.53906 C 149.21963 323.32206 136.662 328.534 123 335 C 127.448 343.699 140.166 346.06064 149 344.18164 C 158.428 342.17664 165.60963 336.28209 173.01562 330.49609 C 178.17563 326.46409 183.141 321.75845 190 321.18945 C 199.613 320.39145 207.83206 328.38845 215.03906 333.56445 C 222.18206 338.69445 230.193 342.21916 239 343.03516 C 244.752 343.56716 254.61213 343.57783 257.95312 337.67383 C 260.48013 333.20783 255.05105 331.18286 251.99805 329.63086 C 242.86405 324.98786 233.77084 320.28455 225.08984 314.81055 C 213.71284 307.63755 202.60116 296.40534 188.28516 296.40234 z M -49.785156 363.46289 L -49.785156 436.74609 L -36.544922 436.74609 L -36.544922 396.2207 C -36.544922 390.76962 -36.742363 384.43363 -37.136719 377.21094 L -36.726562 377.21094 C -35.786175 382.69609 -35.104378 386.10294 -34.679688 387.43164 L -19.117188 436.74609 L -7.1054688 436.74609 L 8.1835938 386.91992 C 8.7902953 384.9439 9.474045 381.70808 10.232422 377.21094 L 10.595703 377.21094 C 10.231682 382.93458 10.050781 388.16476 10.050781 392.90039 L 10.050781 436.74609 L 24.564453 436.74609 L 24.564453 363.46289 L 3.5878906 363.46289 L -9.7441406 406.80078 C -10.654192 409.79888 -11.518843 413.32466 -12.337891 417.37891 L -12.611328 417.37891 C -13.096689 413.86977 -13.869913 410.37741 -14.931641 406.90234 L -28.263672 363.46289 L -49.785156 363.46289 z M 56.144531 363.46289 L 32.392578 436.74609 L 48.318359 436.74609 L 52.914062 420.44531 L 76.119141 420.44531 L 80.761719 436.74609 L 96.777344 436.74609 L 73.572266 363.46289 L 56.144531 363.46289 z M 104.92188 363.46289 L 104.92188 436.74609 L 119.62109 436.74609 L 119.62109 408.69141 L 123.57812 408.69141 C 124.48818 408.69141 125.32366 408.91256 126.08203 409.35547 C 126.87075 409.7643 127.61285 410.37765 128.31055 411.19531 C 129.03859 411.97891 129.75151 412.93235 130.44922 414.05664 C 131.14692 415.18093 131.87638 416.45776 132.63477 417.88867 L 142.78125 436.74609 L 159.66211 436.74609 L 147.33203 415.07812 C 146.695 413.95385 145.98208 412.81265 145.19336 411.6543 C 144.43499 410.46187 143.63063 409.35606 142.78125 408.33398 C 141.93186 407.3119 141.05263 406.42531 140.14258 405.67578 C 139.23253 404.89219 138.29104 404.32897 137.32031 403.98828 L 137.32031 403.78516 C 139.53477 403.0697 141.5364 402.08088 143.32617 400.82031 C 145.14627 399.55975 146.69467 398.06176 147.96875 396.32422 C 149.24282 394.58669 150.22807 392.64441 150.92578 390.49805 C 151.62349 388.31761 151.97266 385.94972 151.97266 383.39453 C 151.97266 370.1075 144.05561 363.46289 128.2207 363.46289 L 104.92188 363.46289 z M 160.29883 363.46289 L 160.29883 376.24023 L 165.75977 376.24023 L 165.75977 423.9707 L 160.29883 423.9707 L 160.29883 436.74609 L 185.91797 436.74609 L 185.91797 423.9707 L 180.45703 423.9707 L 180.45703 376.24023 L 185.91797 376.24023 L 185.91797 363.46289 L 160.29883 363.46289 z M 195.29102 363.46289 L 195.29102 436.74609 L 209.16992 436.74609 L 209.16992 396.47656 C 209.16992 391.16175 209.04737 387.21035 208.80469 384.62109 L 208.98828 384.62109 C 209.59499 385.98386 210.68625 388.01164 212.26367 390.70312 L 239.15625 436.74609 L 253.99023 436.74609 L 253.99023 363.46289 L 240.11133 363.46289 L 240.11133 403.98828 C 240.11133 408.99646 240.23193 412.35317 240.47461 414.05664 L 240.29297 414.05664 C 239.29192 412.08062 238.20064 410.08821 237.01758 408.07812 L 211.125 363.46289 L 195.29102 363.46289 z M 268.91406 363.46289 L 268.91406 436.74609 L 308.04688 436.74609 L 308.04688 423.35742 L 283.61133 423.35742 L 283.61133 406.5957 L 304.95312 406.5957 L 304.95312 393.20703 L 283.61133 393.20703 L 283.61133 376.9043 L 306.54492 376.9043 L 306.54492 363.46289 L 268.91406 363.46289 z M 318.51172 363.46289 L 318.51172 436.74609 L 333.20898 436.74609 L 333.20898 408.69141 L 337.16797 408.69141 C 338.07802 408.69141 338.91155 408.91256 339.66992 409.35547 C 340.45864 409.7643 341.20268 410.37765 341.90039 411.19531 C 342.62844 411.97891 343.34136 412.93235 344.03906 414.05664 C 344.73678 415.18093 345.46428 416.45776 346.22266 417.88867 L 356.37109 436.74609 L 373.25195 436.74609 L 389.67773 436.74609 L 400.96289 413.08594 C 401.7516 410.80329 402.25249 409.0989 402.46484 407.97461 L 402.64648 407.97461 C 403.10151 410.35946 403.54211 411.99506 403.9668 412.88086 L 415.20508 436.74609 L 432.63281 436.74609 L 412.52148 399.79883 L 432.08594 363.46289 L 415.70508 363.46289 L 405.33203 385.23438 C 404.33098 388.06212 403.64722 390.19018 403.2832 391.62109 L 403.10156 391.62109 C 402.5252 389.23625 401.87257 387.17504 401.14453 385.4375 L 391.81641 363.46289 L 373.93359 363.46289 L 392.95508 400.10547 L 372.70508 435.78516 L 360.91992 415.07812 C 360.28289 413.95385 359.56996 412.81265 358.78125 411.6543 C 358.02288 410.46187 357.22048 409.35606 356.37109 408.33398 C 355.52172 407.3119 354.64052 406.42531 353.73047 405.67578 C 352.82041 404.89219 351.88088 404.32897 350.91016 403.98828 L 350.91016 403.78516 C 353.12462 403.0697 355.12625 402.08088 356.91602 400.82031 C 358.73612 399.55975 360.28257 398.06176 361.55664 396.32422 C 362.83072 394.58669 363.81792 392.64441 364.51562 390.49805 C 365.21333 388.31761 365.5625 385.94972 365.5625 383.39453 C 365.5625 370.1075 357.6435 363.46289 341.80859 363.46289 L 318.51172 363.46289 z M 119.62109 375.83008 L 126.26367 375.83008 C 133.08907 375.83008 136.50195 379.03247 136.50195 385.4375 C 136.50195 388.50374 135.53129 391.07607 133.58984 393.1543 C 131.67873 395.19845 129.14508 396.2207 125.99023 396.2207 L 119.62109 396.2207 L 119.62109 375.83008 z M 333.20898 375.83008 L 339.85352 375.83008 C 346.6789 375.83008 350.0918 379.03247 350.0918 385.4375 C 350.0918 388.50374 349.12113 391.07607 347.17969 393.1543 C 345.26859 395.19845 342.73493 396.2207 339.58008 396.2207 L 333.20898 396.2207 L 333.20898 375.83008 z M 64.289062 376.54688 L 64.652344 376.54688 C 64.864689 379.10207 65.228444 381.29893 65.744141 383.13867 L 72.751953 407.77148 L 56.052734 407.77148 L 63.152344 382.93359 C 63.759045 380.8213 64.137387 378.69324 64.289062 376.54688 z " />
</svg>
