<?xml version="1.0" encoding="UTF-8" standalone="no"?>
<svg
   width="510.09027"
   height="415.21863"
   version="1.1"
   id="svg2"
   sodipodi:docname="MarinerX_Logo_Name.svg"
   inkscape:version="1.4 (86a8ad7, 2024-10-11)"
   inkscape:export-filename="C:\Users\drewd\OneDrive\Documents\Graphics\MarinerX_Logo_Name.png"
   inkscape:export-xdpi="223.58395"
   inkscape:export-ydpi="223.58395"
   xmlns:inkscape="http://www.inkscape.org/namespaces/inkscape"
   xmlns:sodipodi="http://sodipodi.sourceforge.net/DTD/sodipodi-0.dtd"
   xmlns="http://www.w3.org/2000/svg"
   xmlns:svg="http://www.w3.org/2000/svg">
  <defs
     id="defs2" />
  <sodipodi:namedview
     id="namedview2"
     pagecolor="#ffffff"
     bordercolor="#000000"
     borderopacity="0.25"
     inkscape:showpageshadow="2"
     inkscape:pageopacity="0.0"
     inkscape:pagecheckerboard="0"
     inkscape:deskcolor="#d1d1d1"
     inkscape:zoom="1"
     inkscape:cx="243"
     inkscape:cy="209.5"
     inkscape:window-width="2560"
     inkscape:window-height="1530"
     inkscape:window-x="-11"
     inkscape:window-y="-11"
     inkscape:window-maximized="1"
     inkscape:current-layer="svg2"
     inkscape:export-bgcolor="#ffffffff" />
  <g
     id="g2"
     transform="scale(1.1)"
     style="opacity:1;fill:#ffffff;stroke:none">
    <path
       id="path1"
       style="fill:#ffffff;stroke:none;stroke-width:0.957512"
       d="M 102.96322,0.0052269 C 93.423377,0.0763409 83.539981,0.866302 74.495935,2.46983 c -4.66681,0.827516 -11.61857,2.894804 -10.177482,8.984719 0.952682,4.025416 4.621387,6.916282 7.567871,9.534273 5.83952,5.188289 11.864079,10.169609 17.782901,15.26452 21.601715,18.594804 43.032155,37.753455 63.909175,57.142305 6.96994,6.47343 13.84729,13.154723 21.16039,19.238073 2.47422,2.05925 7.03314,4.7383 6.33815,8.51154 -0.59788,3.24292 -3.95182,6.13135 -6.03965,8.49104 -5.59055,6.31703 -11.67854,12.16461 -17.56325,18.20788 -20.70794,21.26783 -42.12756,41.89151 -63.330933,62.68627 -5.122818,5.02462 -9.941959,10.30122 -14.884163,15.4918 -3.917044,4.11373 -7.676756,7.5303 -8.333859,13.39044 19.357892,1.51559 41.579795,6.54544 60.557985,-0.0987 13.66209,-4.78331 25.43105,-14.82777 36.10463,-24.20266 6.80844,-5.98129 12.87399,-12.78439 19.42,-19.01079 7.1497,-6.80156 14.9007,-12.98941 21.60533,-20.28502 3.65462,-3.97735 7.87119,-7.08527 11.99107,-10.55327 1.68697,-1.42022 3.61693,-3.89788 6.05654,-3.86737 4.54954,0.0573 10.39831,7.90843 13.71266,10.75075 12.50572,10.72262 24.51482,22.08783 37.23295,32.55959 8.8905,7.32042 17.68907,15.86682 27.86089,21.4456 25.47471,13.97315 51.01097,9.21589 77.86026,2.7701 -3.2634,-9.34247 -15.67966,-17.56113 -22.79185,-24.21198 -20.56857,-19.23719 -42.43481,-37.27325 -63.68201,-55.76934 -6.56236,-5.71326 -12.55199,-12.02728 -19.09897,-17.77011 -2.49153,-2.18515 -7.43657,-5.20864 -8.11232,-8.66617 -0.50561,-2.5867 2.53946,-5.08086 4.09089,-6.75669 4.69374,-5.06946 9.46811,-9.75941 14.3416,-14.65909 20.07737,-20.183358 40.43008,-40.003393 60.70067,-60.01487 5.72802,-5.654793 12.14385,-10.606425 18.12083,-15.992912 2.3733,-2.138706 6.30585,-5.124706 4.07963,-8.666165 -4.70333,-7.479316 -20.3046,-7.091375 -28.02047,-8.088669 -12.86327,-1.662854 -29.23998,-3.324326 -41.32946,2.593143 -7.02953,3.440355 -11.98427,10.369234 -17.32105,15.797309 -10.43329,10.61188 -21.14969,20.973386 -31.77906,31.384113 -6.51334,6.379012 -13.39398,12.441154 -19.70162,19.005204 -1.64469,1.712069 -5.02323,6.524361 -7.77814,6.104689 -2.65302,-0.40441 -5.18001,-4.103818 -7.05346,-5.778681 C 212.21076,72.26202 206.11162,67.367273 200.21347,62.322627 184.11176,48.552143 168.90593,33.764408 152.59277,20.22131 146.20054,14.914656 139.90438,8.132939 132.44431,4.328994 126.26653,1.17888 119.19648,0.467274 112.34468,0.171024 109.28487,0.038732 106.14316,-0.0184779 102.96322,0.0052269 Z M 225.68438,197.2555 c -13.10646,1.12643 -22.40629,12.54585 -31.44674,20.68367 -15.18755,13.67176 -31.66908,26.76071 -50.25847,35.53088 -14.87275,7.01807 -31.10671,8.42882 -47.100653,5.20307 -9.282779,-1.8723 -23.313466,-8.91758 -32.638915,-5.74143 -8.141675,2.77174 -3.359305,11.13425 1.340475,14.56222 10.820175,7.89268 23.834803,12.72123 37.065873,14.56778 31.59117,4.40752 59.15436,-9.66933 83.31602,-28.98284 13.52752,-10.81418 28.64607,-32.7299 48.37356,-29.67584 12.0472,1.86468 23.25138,15.07414 32.68209,21.96534 23.53879,17.19987 52.98037,37.32735 84.0351,32.73099 12.66912,-1.87517 25.6991,-8.7305 35.06827,-17.31184 4.32463,-3.96113 7.56863,-12.15296 0.0469,-15.07638 -5.11666,-1.98771 -10.77459,0.94417 -15.33663,2.94524 -6.10674,2.67922 -12.63835,5.20808 -19.22474,6.38412 -15.30099,2.73263 -30.58755,-3.44263 -44.21695,-9.80065 -17.96362,-8.37914 -32.5984,-21.60247 -48.02435,-33.58792 -9.24326,-7.18212 -21.26072,-15.46372 -33.68088,-14.39641 z m 3.15782,46.35614 c -10.32369,-0.002 -18.94554,10.36468 -26.21251,16.34501 -11.33874,9.33101 -23.40962,14.30216 -36.54205,20.46944 4.27559,8.2971 16.50062,10.54962 24.99218,8.75743 9.06256,-1.91236 15.96582,-7.53458 23.08473,-13.05327 4.95999,-3.84571 9.7329,-8.33395 16.32603,-8.87666 9.24038,-0.76114 17.14085,6.86639 24.0685,11.80327 6.86611,4.89298 14.56653,8.25486 23.03216,9.03316 5.52904,0.50742 15.00697,0.51759 18.21845,-5.11363 2.42906,-4.25968 -2.78958,-6.1911 -5.72423,-7.67139 -8.77996,-4.42848 -17.52069,-8.9145 -25.8652,-14.13561 -10.936,-6.84161 -21.61697,-17.55488 -35.37806,-17.55775 z M 0,307.57398 v 69.8975 h 12.727015 v -38.65312 c 0,-5.19923 -0.189789,-11.24249 -0.568859,-18.13148 h 0.394259 c 0.903937,5.23172 1.559305,8.48118 1.967533,9.74848 l 14.959264,47.03612 h 11.54612 l 14.696425,-47.52419 c 0.583184,-1.88473 1.240431,-4.97106 1.969411,-9.26041 h 0.349199 c -0.349911,5.4592 -0.523799,10.44774 -0.523799,14.96459 v 41.82001 H 71.46766 v -69.8975 H 51.304193 L 38.48894,348.90965 c -0.874776,2.85958 -1.70591,6.22247 -2.493212,10.08942 h -0.262837 c -0.466547,-3.34703 -1.209799,-6.67804 -2.230372,-9.99256 L 20.687265,307.57398 Z m 101.82364,0 -22.83129,69.8975 h 15.308467 l 4.41756,-15.54769 h 22.305613 l 4.4626,15.54769 h 15.39484 l -22.30561,-69.8975 z m 46.88663,0 v 69.8975 h 14.12944 v -26.75855 h 3.80364 c 0.87479,0 1.67787,0.21094 2.40686,0.63338 0.75814,0.38995 1.47147,0.97496 2.14213,1.75484 0.69981,0.7474 1.3851,1.65679 2.05578,2.72914 0.67065,1.07234 1.37183,2.29019 2.10082,3.65498 l 9.75319,17.98621 h 16.22652 l -11.85214,-20.6669 c -0.61234,-1.07234 -1.29762,-2.16082 -2.05577,-3.26564 -0.72897,-1.13734 -1.50214,-2.19207 -2.31861,-3.16692 -0.81647,-0.97487 -1.66161,-1.82049 -2.53639,-2.53539 -0.87477,-0.74738 -1.77977,-1.28459 -2.71287,-1.60955 v -0.19372 c 2.12862,-0.68242 4.05266,-1.62555 5.77305,-2.82787 1.74956,-1.20234 3.23794,-2.63112 4.46263,-4.28839 1.22469,-1.65725 2.17175,-3.50979 2.84241,-5.55699 0.67066,-2.07971 1.00631,-4.33819 1.00631,-6.77533 0,-12.67316 -7.61018,-19.0108 -22.83129,-19.0108 z m 53.23042,0 v 12.18703 h 5.24927 v 45.5253 h -5.24927 v 12.18517 h 24.62609 v -12.18517 h -5.24926 v -45.5253 h 5.24926 v -12.18703 z m 33.63582,0 v 69.8975 h 13.34093 v -38.40907 c 0,-5.06926 -0.1178,-8.83811 -0.35108,-11.30774 h 0.17647 c 0.58319,1.29981 1.63215,3.2339 3.14843,5.80104 l 25.85017,43.91577 h 14.25898 v -69.8975 h -13.34093 v 38.6531 c 0,4.7768 0.11593,7.97844 0.3492,9.60321 h -0.1746 c -0.96225,-1.88474 -2.01123,-3.78508 -3.14842,-5.70231 l -24.88893,-42.554 z m 70.76925,0 v 69.8975 h 37.61595 v -12.77011 h -23.48838 v -15.98732 h 20.51454 v -12.77011 h -20.51454 v -15.54955 h 22.04464 v -12.82041 z m 47.67515,0 v 69.8975 h 14.12756 v -26.75855 h 3.80554 c 0.87476,0 1.67599,0.21094 2.40496,0.63338 0.75815,0.38995 1.47334,0.97496 2.14402,1.75484 0.69983,0.7474 1.38511,1.65679 2.05577,2.72914 0.67066,1.07234 1.36998,2.29019 2.09894,3.65498 l 9.75507,17.98621 h 16.22652 15.78908 l 10.84773,-22.56705 c 0.75813,-2.17719 1.23961,-3.80283 1.44372,-4.87519 h 0.17461 c 0.43738,2.27467 0.86091,3.83471 1.26914,4.67959 l 10.80265,22.76265 h 16.7522 l -19.33177,-35.24029 18.80611,-34.65721 h -15.74591 l -9.97098,20.76564 c -0.96223,2.6971 -1.6195,4.72685 -1.9694,6.09165 h -0.17461 c -0.55401,-2.27466 -1.18135,-4.24064 -1.88116,-5.89792 l -8.96655,-20.95937 h -17.18964 l 18.28417,34.94969 -19.46506,34.03126 -11.32835,-19.75035 c -0.61233,-1.07234 -1.29763,-2.16082 -2.05577,-3.26564 -0.72897,-1.13734 -1.50026,-2.19207 -2.31673,-3.16692 -0.81646,-0.97487 -1.66348,-1.82049 -2.53827,-2.53539 -0.87478,-0.74738 -1.77789,-1.28459 -2.71099,-1.60955 v -0.19372 c 2.12864,-0.68242 4.05268,-1.62555 5.77308,-2.82787 1.74953,-1.20234 3.23605,-2.63112 4.46073,-4.28839 1.22468,-1.65725 2.17362,-3.50979 2.84428,-5.55699 0.67067,-2.07971 1.0063,-4.33819 1.0063,-6.77533 0,-12.67316 -7.61205,-19.0108 -22.83316,-19.0108 z m -191.1812,11.79584 h 6.38509 c 6.56084,0 9.84142,3.05442 9.84142,9.16353 0,2.92458 -0.93303,5.37808 -2.79922,7.36029 -1.83704,1.94972 -4.27248,2.92472 -7.30504,2.92472 h -6.12225 z m 205.30876,0 h 6.38698 c 6.56082,0 9.84143,3.05442 9.84143,9.16353 0,2.92458 -0.93304,5.37808 -2.79924,7.36029 -1.83701,1.94972 -4.27247,2.92472 -7.30502,2.92472 h -6.12415 z m -258.49601,0.68367 h 0.3492 c 0.20412,2.43714 0.55378,4.53251 1.04948,6.28725 l 6.73617,23.49476 h -16.05192 l 6.82441,-23.69037 c 0.58319,-2.0147 0.94686,-4.04445 1.09266,-6.09164 z" />
  </g>
  <g
     id="g1"
     transform="translate(23.185921,18.873574)">
    <path
       id="path2"
       style="fill:#020202;stroke:none;stroke-width:0.957512"
       d="M 102.96322,0.0052269 C 93.423377,0.0763409 83.539981,0.866302 74.495935,2.46983 c -4.66681,0.827516 -11.61857,2.894804 -10.177482,8.984719 0.952682,4.025416 4.621387,6.916282 7.567871,9.534273 5.83952,5.188289 11.864079,10.169609 17.782901,15.26452 21.601715,18.594804 43.032155,37.753455 63.909175,57.142305 6.96994,6.47343 13.84729,13.154723 21.16039,19.238073 2.47422,2.05925 7.03314,4.7383 6.33815,8.51154 -0.59788,3.24292 -3.95182,6.13135 -6.03965,8.49104 -5.59055,6.31703 -11.67854,12.16461 -17.56325,18.20788 -20.70794,21.26783 -42.12756,41.89151 -63.330933,62.68627 -5.122818,5.02462 -9.941959,10.30122 -14.884163,15.4918 -3.917044,4.11373 -7.676756,7.5303 -8.333859,13.39044 19.357892,1.51559 41.579795,6.54544 60.557985,-0.0987 13.66209,-4.78331 25.43105,-14.82777 36.10463,-24.20266 6.80844,-5.98129 12.87399,-12.78439 19.42,-19.01079 7.1497,-6.80156 14.9007,-12.98941 21.60533,-20.28502 3.65462,-3.97735 7.87119,-7.08527 11.99107,-10.55327 1.68697,-1.42022 3.61693,-3.89788 6.05654,-3.86737 4.54954,0.0573 10.39831,7.90843 13.71266,10.75075 12.50572,10.72262 24.51482,22.08783 37.23295,32.55959 8.8905,7.32042 17.68907,15.86682 27.86089,21.4456 25.47471,13.97315 51.01097,9.21589 77.86026,2.7701 -3.2634,-9.34247 -15.67966,-17.56113 -22.79185,-24.21198 -20.56857,-19.23719 -42.43481,-37.27325 -63.68201,-55.76934 -6.56236,-5.71326 -12.55199,-12.02728 -19.09897,-17.77011 -2.49153,-2.18515 -7.43657,-5.20864 -8.11232,-8.66617 -0.50561,-2.5867 2.53946,-5.08086 4.09089,-6.75669 4.69374,-5.06946 9.46811,-9.75941 14.3416,-14.65909 20.07737,-20.183358 40.43008,-40.003393 60.70067,-60.01487 5.72802,-5.654793 12.14385,-10.606425 18.12083,-15.992912 2.3733,-2.138706 6.30585,-5.124706 4.07963,-8.666165 -4.70333,-7.479316 -20.3046,-7.091375 -28.02047,-8.088669 -12.86327,-1.662854 -29.23998,-3.324326 -41.32946,2.593143 -7.02953,3.440355 -11.98427,10.369234 -17.32105,15.797309 -10.43329,10.61188 -21.14969,20.973386 -31.77906,31.384113 -6.51334,6.379012 -13.39398,12.441154 -19.70162,19.005204 -1.64469,1.712069 -5.02323,6.524361 -7.77814,6.104689 -2.65302,-0.40441 -5.18001,-4.103818 -7.05346,-5.778681 C 212.21076,72.26202 206.11162,67.367273 200.21347,62.322627 184.11176,48.552143 168.90593,33.764408 152.59277,20.22131 146.20054,14.914656 139.90438,8.132939 132.44431,4.328994 126.26653,1.17888 119.19648,0.467274 112.34468,0.171024 109.28487,0.038732 106.14316,-0.0184779 102.96322,0.0052269 Z M 225.68438,197.2555 c -13.10646,1.12643 -22.40629,12.54585 -31.44674,20.68367 -15.18755,13.67176 -31.66908,26.76071 -50.25847,35.53088 -14.87275,7.01807 -31.10671,8.42882 -47.100653,5.20307 -9.282779,-1.8723 -23.313466,-8.91758 -32.638915,-5.74143 -8.141675,2.77174 -3.359305,11.13425 1.340475,14.56222 10.820175,7.89268 23.834803,12.72123 37.065873,14.56778 31.59117,4.40752 59.15436,-9.66933 83.31602,-28.98284 13.52752,-10.81418 28.64607,-32.7299 48.37356,-29.67584 12.0472,1.86468 23.25138,15.07414 32.68209,21.96534 23.53879,17.19987 52.98037,37.32735 84.0351,32.73099 12.66912,-1.87517 25.6991,-8.7305 35.06827,-17.31184 4.32463,-3.96113 7.56863,-12.15296 0.0469,-15.07638 -5.11666,-1.98771 -10.77459,0.94417 -15.33663,2.94524 -6.10674,2.67922 -12.63835,5.20808 -19.22474,6.38412 -15.30099,2.73263 -30.58755,-3.44263 -44.21695,-9.80065 -17.96362,-8.37914 -32.5984,-21.60247 -48.02435,-33.58792 -9.24326,-7.18212 -21.26072,-15.46372 -33.68088,-14.39641 z m 3.15782,46.35614 c -10.32369,-0.002 -18.94554,10.36468 -26.21251,16.34501 -11.33874,9.33101 -23.40962,14.30216 -36.54205,20.46944 4.27559,8.2971 16.50062,10.54962 24.99218,8.75743 9.06256,-1.91236 15.96582,-7.53458 23.08473,-13.05327 4.95999,-3.84571 9.7329,-8.33395 16.32603,-8.87666 9.24038,-0.76114 17.14085,6.86639 24.0685,11.80327 6.86611,4.89298 14.56653,8.25486 23.03216,9.03316 5.52904,0.50742 15.00697,0.51759 18.21845,-5.11363 2.42906,-4.25968 -2.78958,-6.1911 -5.72423,-7.67139 -8.77996,-4.42848 -17.52069,-8.9145 -25.8652,-14.13561 -10.936,-6.84161 -21.61697,-17.55488 -35.37806,-17.55775 z M 0,307.57398 v 69.8975 h 12.727015 v -38.65312 c 0,-5.19923 -0.189789,-11.24249 -0.568859,-18.13148 h 0.394259 c 0.903937,5.23172 1.559305,8.48118 1.967533,9.74848 l 14.959264,47.03612 h 11.54612 l 14.696425,-47.52419 c 0.583184,-1.88473 1.240431,-4.97106 1.969411,-9.26041 h 0.349199 c -0.349911,5.4592 -0.523799,10.44774 -0.523799,14.96459 v 41.82001 H 71.46766 v -69.8975 H 51.304193 L 38.48894,348.90965 c -0.874776,2.85958 -1.70591,6.22247 -2.493212,10.08942 h -0.262837 c -0.466547,-3.34703 -1.209799,-6.67804 -2.230372,-9.99256 L 20.687265,307.57398 Z m 101.82364,0 -22.83129,69.8975 h 15.308467 l 4.41756,-15.54769 h 22.305613 l 4.4626,15.54769 h 15.39484 l -22.30561,-69.8975 z m 46.88663,0 v 69.8975 h 14.12944 v -26.75855 h 3.80364 c 0.87479,0 1.67787,0.21094 2.40686,0.63338 0.75814,0.38995 1.47147,0.97496 2.14213,1.75484 0.69981,0.7474 1.3851,1.65679 2.05578,2.72914 0.67065,1.07234 1.37183,2.29019 2.10082,3.65498 l 9.75319,17.98621 h 16.22652 l -11.85214,-20.6669 c -0.61234,-1.07234 -1.29762,-2.16082 -2.05577,-3.26564 -0.72897,-1.13734 -1.50214,-2.19207 -2.31861,-3.16692 -0.81647,-0.97487 -1.66161,-1.82049 -2.53639,-2.53539 -0.87477,-0.74738 -1.77977,-1.28459 -2.71287,-1.60955 v -0.19372 c 2.12862,-0.68242 4.05266,-1.62555 5.77305,-2.82787 1.74956,-1.20234 3.23794,-2.63112 4.46263,-4.28839 1.22469,-1.65725 2.17175,-3.50979 2.84241,-5.55699 0.67066,-2.07971 1.00631,-4.33819 1.00631,-6.77533 0,-12.67316 -7.61018,-19.0108 -22.83129,-19.0108 z m 53.23042,0 v 12.18703 h 5.24927 v 45.5253 h -5.24927 v 12.18517 h 24.62609 v -12.18517 h -5.24926 v -45.5253 h 5.24926 v -12.18703 z m 33.63582,0 v 69.8975 h 13.34093 v -38.40907 c 0,-5.06926 -0.1178,-8.83811 -0.35108,-11.30774 h 0.17647 c 0.58319,1.29981 1.63215,3.2339 3.14843,5.80104 l 25.85017,43.91577 h 14.25898 v -69.8975 h -13.34093 v 38.6531 c 0,4.7768 0.11593,7.97844 0.3492,9.60321 h -0.1746 c -0.96225,-1.88474 -2.01123,-3.78508 -3.14842,-5.70231 l -24.88893,-42.554 z m 70.76925,0 v 69.8975 h 37.61595 v -12.77011 h -23.48838 v -15.98732 h 20.51454 v -12.77011 h -20.51454 v -15.54955 h 22.04464 v -12.82041 z m 47.67515,0 v 69.8975 h 14.12756 v -26.75855 h 3.80554 c 0.87476,0 1.67599,0.21094 2.40496,0.63338 0.75815,0.38995 1.47334,0.97496 2.14402,1.75484 0.69983,0.7474 1.38511,1.65679 2.05577,2.72914 0.67066,1.07234 1.36998,2.29019 2.09894,3.65498 l 9.75507,17.98621 h 16.22652 15.78908 l 10.84773,-22.56705 c 0.75813,-2.17719 1.23961,-3.80283 1.44372,-4.87519 h 0.17461 c 0.43738,2.27467 0.86091,3.83471 1.26914,4.67959 l 10.80265,22.76265 h 16.7522 l -19.33177,-35.24029 18.80611,-34.65721 h -15.74591 l -9.97098,20.76564 c -0.96223,2.6971 -1.6195,4.72685 -1.9694,6.09165 h -0.17461 c -0.55401,-2.27466 -1.18135,-4.24064 -1.88116,-5.89792 l -8.96655,-20.95937 h -17.18964 l 18.28417,34.94969 -19.46506,34.03126 -11.32835,-19.75035 c -0.61233,-1.07234 -1.29763,-2.16082 -2.05577,-3.26564 -0.72897,-1.13734 -1.50026,-2.19207 -2.31673,-3.16692 -0.81646,-0.97487 -1.66348,-1.82049 -2.53827,-2.53539 -0.87478,-0.74738 -1.77789,-1.28459 -2.71099,-1.60955 v -0.19372 c 2.12864,-0.68242 4.05268,-1.62555 5.77308,-2.82787 1.74953,-1.20234 3.23605,-2.63112 4.46073,-4.28839 1.22468,-1.65725 2.17362,-3.50979 2.84428,-5.55699 0.67067,-2.07971 1.0063,-4.33819 1.0063,-6.77533 0,-12.67316 -7.61205,-19.0108 -22.83316,-19.0108 z m -191.1812,11.79584 h 6.38509 c 6.56084,0 9.84142,3.05442 9.84142,9.16353 0,2.92458 -0.93303,5.37808 -2.79922,7.36029 -1.83704,1.94972 -4.27248,2.92472 -7.30504,2.92472 h -6.12225 z m 205.30876,0 h 6.38698 c 6.56082,0 9.84143,3.05442 9.84143,9.16353 0,2.92458 -0.93304,5.37808 -2.79924,7.36029 -1.83701,1.94972 -4.27247,2.92472 -7.30502,2.92472 h -6.12415 z m -258.49601,0.68367 h 0.3492 c 0.20412,2.43714 0.55378,4.53251 1.04948,6.28725 l 6.73617,23.49476 h -16.05192 l 6.82441,-23.69037 c 0.58319,-2.0147 0.94686,-4.04445 1.09266,-6.09164 z" />
  </g>
</svg>
